<?xml version="1.0" encoding="UTF-8"?>
<svg xmlns="http://www.w3.org/2000/svg" xmlns:xlink="http://www.w3.org/1999/xlink" xmlns:svg="http://www.w3.org/2000/svg" xmlns:sodipodi="http://sodipodi.sourceforge.net/DTD/sodipodi-0.dtd" xmlns:rdf="http://www.w3.org/1999/02/22-rdf-syntax-ns#" xmlns:inkscape="http://www.inkscape.org/namespaces/inkscape" xmlns:dc="http://purl.org/dc/elements/1.1/" xmlns:cc="http://creativecommons.org/ns#" version="1.1" viewBox="0 0 86.4 87.4">
  <defs>
    <style>
      .cls-1 {
        fill: url(#linear-gradient-2);
      }

      .cls-2 {
        fill: url(#linear-gradient);
      }
    </style>
    <linearGradient id="linear-gradient" x1="185.2" y1="-92.8" x2="267.7" y2="-163.8" gradientTransform="translate(-105.1 -49.2) scale(.6 -.6)" gradientUnits="userSpaceOnUse">
      <stop offset="0" stop-color="#dddddd"/>
      <stop offset="1" stop-color="#dddddd"/>
    </linearGradient>
    <linearGradient id="linear-gradient-2" x1="299.6" y1="-206.8" x2="270.1" y2="-165.1" gradientTransform="translate(-105.1 -49.2) scale(.6 -.6)" gradientUnits="userSpaceOnUse">
      <stop offset="0" stop-color="#dddddd"/>
      <stop offset="1" stop-color="#dddddd"/>
    </linearGradient>
  </defs>
  <!-- Generator: Adobe Illustrator 28.6.0, SVG Export Plug-In . SVG Version: 1.2.0 Build 709)  -->
  <g>
    <g id="svg2">
      <sodipodi:namedview id="base" width="210mm" height="40mm" bordercolor="#666666" borderopacity="1.0" gridtolerance="10.0" guidetolerance="10.0" inkscape:current-layer="svg2" inkscape:cx="91.558698" inkscape:cy="47.9926" inkscape:deskcolor="#dddddd" inkscape:document-units="pt" inkscape:pagecheckerboard="0" inkscape:pageopacity="0.0" inkscape:pageshadow="2" inkscape:showpageshadow="2" inkscape:window-height="2080" inkscape:window-maximized="0" inkscape:window-width="1976" inkscape:window-x="1092" inkscape:window-y="72" inkscape:zoom="2.1461642" objecttolerance="10.0" pagecolor="#ffffff" showgrid="false" units="mm"/>
      <path id="path1948" class="cls-2" d="M42.7,1.2c-3.5,0-6.8.3-9.7.8-8.6,1.5-10.1,4.7-10.1,10.5v7.7h20.3v2.6H15.2c-5.9,0-11.1,3.5-12.7,10.3-1.9,7.7-1.9,12.6,0,20.6,1.4,6,4.9,10.3,10.8,10.3h7v-9.3c0-6.7,5.8-12.6,12.7-12.6h20.3c5.6,0,10.1-4.6,10.1-10.3V12.5c0-5.5-4.6-9.6-10.1-10.5-3.5-.6-7.1-.8-10.6-.8ZM31.7,7.4c2.1,0,3.8,1.7,3.8,3.9,0,2.1-1.7,3.9-3.8,3.9-2.1,0-3.8-1.7-3.8-3.9s1.7-3.9,3.8-3.9Z"/>
      <path id="path1950" class="cls-1" d="M65.9,22.8v9c0,7-5.9,12.9-12.7,12.9h-20.3c-5.6,0-10.1,4.8-10.1,10.3v19.3c0,5.5,4.8,8.7,10.1,10.3,6.4,1.9,12.6,2.2,20.3,0,5.1-1.5,10.1-4.5,10.1-10.3v-7.7h-20.3v-2.6h30.4c5.9,0,8.1-4.1,10.1-10.3,2.1-6.4,2-12.5,0-20.6-1.5-5.9-4.2-10.3-10.1-10.3h-7.6ZM54.5,71.8c2.1,0,3.8,1.7,3.8,3.9s-1.7,3.9-3.8,3.9-3.8-1.7-3.8-3.9,1.7-3.9,3.8-3.9Z"/>
    </g>
  </g>
</svg>